<svg xmlns="http://www.w3.org/2000/svg" viewBox="0 0 449.38 55.2"><defs><style>.cls-1{fill:#00a68e;}.cls-2{fill:#f4f4f4;}</style></defs><title>Asset 3</title><g id="Layer_2" data-name="Layer 2"><g id="Layer_1-2" data-name="Layer 1"><polygon class="cls-1" points="378.45 24.67 378.45 30.52 366.75 30.52 366.75 42.22 360.9 42.22 360.9 30.52 349.2 30.52 349.2 24.67 360.9 24.67 360.9 12.97 366.75 12.97 366.75 24.67 378.45 24.67"/><polygon class="cls-2" points="55.2 0 55.2 55.2 47.31 55.2 47.31 11.44 27.6 31.15 7.89 11.44 7.89 55.2 0 55.2 0 0 7.6 0 10.87 3.27 16.45 8.84 23.66 16.05 27.6 20 31.54 16.05 38.75 8.84 44.33 3.27 47.6 0 55.2 0"/><path class="cls-1" d="M166.69,0h-39V55.2h39L182.86,39V16.17ZM175,35.77,163.43,47.31H135.55V7.89h27.88L175,19.44Z"/><path class="cls-1" d="M224.88,10.88l-2.59-2.6L214,0H191.15l-8.29,8.28-2.58,2.6L175,16.17V39l8.27,8.27,2.6,2.6,5.29,5.29H214l5.3-5.29,2.59-2.6L230.18,39V16.17Zm-2.59,24.89L210.75,47.31H194.41L182.86,35.77V19.44l3-3,5.57-5.57,3-3h16.33l3,3,5.58,5.57,3,3Z"/><path class="cls-2" d="M386.14,10.88l-2.6-2.6L375.26,0H352.4l-8.28,8.28-2.59,2.6-5.3,5.29V39l8.28,8.27,2.59,2.6,5.29,5.29h22.88l5.29-5.29,2.59-2.6L391.43,39V16.17Zm-2.6,24.89L372,47.31H355.66L344.12,35.77V19.44l3-3,5.57-5.57,3-3H372l3,3,5.58,5.57,3,3Z"/><polygon class="cls-1" points="277.49 0 277.49 7.89 241.72 7.89 238.74 10.87 233.16 16.45 230.18 19.43 230.18 35.76 233.16 38.75 238.74 44.33 241.72 47.31 277.49 47.31 277.49 55.2 238.46 55.2 230.18 46.92 227.59 44.33 222.29 39.03 222.29 16.16 230.57 7.89 233.16 5.29 238.45 0 277.49 0"/><path class="cls-2" d="M433.22,0h-39V55.2h7.88V31.54h18.09L443.81,55.2h5.57V49.62l-7.89-7.89-3-3-7.21-7.21h18.08V16.16Zm8.27,23.66H402.06V7.89H430l11.54,11.54Z"/><polygon class="cls-2" points="336.23 0 336.23 7.89 312.57 7.89 312.57 55.2 304.69 55.2 304.69 7.89 281.03 7.89 281.03 0 336.23 0"/><polygon class="cls-2" points="108.41 6.15 105.55 9.01 88.14 26.41 88.14 55.07 79.44 55.07 79.44 26.41 77.64 24.61 65.33 12.31 62.03 9.01 59.18 6.15 62.03 3.3 62.48 2.85 65.33 0 68.19 2.85 71.49 6.15 79.44 14.11 83.79 18.46 99.39 2.85 102.25 0 108.41 6.15"/></g></g></svg>